<svg xmlns="http://www.w3.org/2000/svg" width="24" height="24" viewBox="0 0 24 24">
    <g fill="none" fill-rule="evenodd">
        <g fill="#000" fill-rule="nonzero">
            <g>
                <path d="M1.116 1.116C1.572.661 2.292.63 2.782 1.025l.102.091 20 20c.488.488.488 1.28 0 1.768-.456.455-1.176.486-1.666.091l-.102-.091-20-20c-.488-.488-.488-1.28 0-1.768z" transform="translate(-18.000000, -17.000000) translate(18.000000, 17.000000)"/>
                <path d="M21.116 1.116c.488-.488 1.28-.488 1.768 0 .455.456.486 1.176.091 1.666l-.091.102-20 20c-.488.488-1.28.488-1.768 0-.455-.456-.486-1.176-.091-1.666l.091-.102 20-20z" transform="translate(-18.000000, -17.000000) translate(18.000000, 17.000000)"/>
            </g>
        </g>
    </g>
</svg>
