<svg xmlns="http://www.w3.org/2000/svg" width="24" height="24" viewBox="0 0 24 24">
    <g fill="none" fill-rule="evenodd">
        <g fill="#000" fill-rule="nonzero">
            <g>
                <path d="M22 1.75c.69 0 1.25.56 1.25 1.25 0 .647-.492 1.18-1.122 1.244L22 4.25H2C1.31 4.25.75 3.69.75 3c0-.647.492-1.18 1.122-1.244L2 1.75h20zM22 10.75c.69 0 1.25.56 1.25 1.25 0 .647-.492 1.18-1.122 1.244L22 13.25H2c-.69 0-1.25-.56-1.25-1.25 0-.647.492-1.18 1.122-1.244L2 10.75h20zM22 19.75c.69 0 1.25.56 1.25 1.25 0 .647-.492 1.18-1.122 1.244L22 22.25H2c-.69 0-1.25-.56-1.25-1.25 0-.647.492-1.18 1.122-1.244L2 19.75h20z" transform="translate(-18.000000, -17.000000) translate(18.000000, 17.000000)"/>
            </g>
        </g>
    </g>
</svg>
