<svg xmlns="http://www.w3.org/2000/svg" width="24" height="24" viewBox="0 0 24 24">
    <defs>
        <filter id="191cy5urea" color-interpolation-filters="auto">
            <feColorMatrix in="SourceGraphic" values="0 0 0 0 0.188235 0 0 0 0 0.643137 0 0 0 0 0.400000 0 0 0 1.000000 0"/>
        </filter>
    </defs>
    <g fill="none" fill-rule="evenodd">
        <g>
            <g filter="url(#191cy5urea)" transform="translate(-16.000000, -256.000000) translate(0.000000, 232.000000)">
                <g>
                    <g fill="#000" fill-rule="nonzero">
                        <path d="M16.996 19.992h-1v-2.999c-.003-2.46-1.298-4.736-3.408-5.997 2.11-1.262 3.404-3.539 3.409-5.998v-2.99h.999c.555 0 1.004-.45 1.004-1.004S17.55 0 16.996 0H1.004C.449 0 0 .45 0 1.004c0 .555.45 1.004 1.004 1.004h1.008v2.99c0 2.458 1.292 4.735 3.4 5.998-2.109 1.262-3.4 3.539-3.4 5.997v2.999H1.004c-.555 0-1.004.45-1.004 1.004S.45 22 1.004 22h15.992c.555 0 1.004-.45 1.004-1.004 0-.555-.45-1.004-1.004-1.004zm-12.994 0v-2.999c.007-1.61.788-3.118 2.1-4.052.555-.37.89-.993.892-1.66v-.571c-.004-.667-.338-1.288-.892-1.658-1.312-.934-2.094-2.443-2.1-4.054v-2.99h9.996v2.99c-.005 1.612-.786 3.124-2.1 4.059-.554.37-.888.99-.892 1.657v.56c.003.668.337 1.29.892 1.66 1.314.935 2.096 2.447 2.1 4.06v2.998H4.002z" transform="translate(16.000000, 24.000000) translate(3.000000, 1.000000)"/>
                        <path d="M6 18v-1.374c.006-.982.47-1.903 1.25-2.477.971-.669 1.555-1.787 1.558-2.986v-.544C8.805 9.42 8.221 8.302 7.25 7.632 6.47 7.057 6.006 6.135 6 5.152V5h6s-.467 2.056-1.25 2.632c-.972.67-1.555 1.788-1.558 2.987v.544c.003 1.198.587 2.317 1.558 2.986.78.575 1.245 1.497 1.25 2.481V18H6z" transform="translate(16.000000, 24.000000) translate(3.000000, 1.000000)"/>
                    </g>
                </g>
            </g>
        </g>
    </g>
</svg>
