<svg xmlns="http://www.w3.org/2000/svg" width="24" height="24" viewBox="0 0 24 24">
    <defs>
        <filter id="xfi0dwb4da" color-interpolation-filters="auto">
            <feColorMatrix in="SourceGraphic" values="0 0 0 0 0.188235 0 0 0 0 0.643137 0 0 0 0 0.400000 0 0 0 1.000000 0"/>
        </filter>
    </defs>
    <g fill="none" fill-rule="evenodd">
        <g>
            <g filter="url(#xfi0dwb4da)" transform="translate(-16.000000, -185.000000) translate(-0.000000, 161.000000)">
                <g fill="#000" fill-rule="nonzero">
                    <path d="M0 12.007C.004 18.633 5.315 24.002 11.864 24c6.549-.002 11.857-5.374 11.857-12-.002-3.184-1.253-6.237-3.48-8.487-2.225-2.25-5.244-3.514-8.39-3.513C5.3.006-.005 5.38 0 12.007zM11.855 22c-5.459-.003-9.881-4.482-9.878-10.005C1.98 6.472 6.407 1.997 11.866 2c5.458.003 9.88 4.482 9.878 10.005 0 2.653-1.042 5.197-2.897 7.071-1.855 1.875-4.37 2.927-6.992 2.924z" transform="translate(15.999998, 23.999999)"/>
                    <path d="M12.849 12V5.054c0-.582-.443-1.054-.989-1.054s-.988.472-.988 1.054V12c0 .582.442 1.054.988 1.054s.989-.472.989-1.054z" transform="translate(15.999998, 23.999999)"/>
                    <path d="M14.298 15.566v-4c0-.582-.442-1.053-.988-1.053s-.989.471-.989 1.053v4c0 .582.443 1.054.989 1.054s.988-.472.988-1.054z" transform="translate(15.999998, 23.999999) translate(13.309688, 13.566444) rotate(135.000000) translate(-13.309688, -13.566444)"/>
                </g>
            </g>
        </g>
    </g>
</svg>
