<svg xmlns="http://www.w3.org/2000/svg" width="24" height="24" viewBox="0 0 24 24">
    <g fill="none" fill-rule="evenodd">
        <g fill="#000">
            <g>
                <g>
                    <path d="M6.5 6.5H10.5V7.5H6.5z" transform="translate(-325.000000, -17.000000) translate(325.000000, 10.000000) translate(0.000000, 7.000000) translate(8.500000, 7.000000) rotate(-270.000000) translate(-8.500000, -7.000000)"/>
                    <path d="M11.5 6.5H15.5V7.5H11.5z" transform="translate(-325.000000, -17.000000) translate(325.000000, 10.000000) translate(0.000000, 7.000000) translate(13.500000, 7.000000) rotate(-270.000000) translate(-13.500000, -7.000000)"/>
                    <path d="M16.5 6.5H20.5V7.5H16.5z" transform="translate(-325.000000, -17.000000) translate(325.000000, 10.000000) translate(0.000000, 7.000000) translate(18.500000, 7.000000) rotate(-270.000000) translate(-18.500000, -7.000000)"/>
                    <path d="M8.5 8.5H12.5V9.5H8.5z" transform="translate(-325.000000, -17.000000) translate(325.000000, 10.000000) translate(0.000000, 7.000000) translate(10.500000, 9.000000) rotate(-270.000000) translate(-10.500000, -9.000000)"/>
                    <path d="M12 11H15V12H12z" transform="translate(-325.000000, -17.000000) translate(325.000000, 10.000000) translate(0.000000, 7.000000) translate(13.500000, 11.500000) rotate(-270.000000) translate(-13.500000, -11.500000)"/>
                    <path d="M14.5 10.5H16.5V11.5H14.5z" transform="translate(-325.000000, -17.000000) translate(325.000000, 10.000000) translate(0.000000, 7.000000) translate(15.500000, 11.000000) rotate(-270.000000) translate(-15.500000, -11.000000)"/>
                    <path d="M16.5 11.5H20.5V12.5H16.5z" transform="translate(-325.000000, -17.000000) translate(325.000000, 10.000000) translate(0.000000, 7.000000) translate(18.500000, 12.000000) rotate(-270.000000) translate(-18.500000, -12.000000)"/>
                    <path d="M6.5 16.5H10.5V17.5H6.5z" transform="translate(-325.000000, -17.000000) translate(325.000000, 10.000000) translate(0.000000, 7.000000) translate(8.500000, 17.000000) rotate(-270.000000) translate(-8.500000, -17.000000)"/>
                    <path d="M11.5 16.5H15.5V17.5H11.5z" transform="translate(-325.000000, -17.000000) translate(325.000000, 10.000000) translate(0.000000, 7.000000) translate(13.500000, 17.000000) rotate(-270.000000) translate(-13.500000, -17.000000)"/>
                    <path d="M17 17H20V18H17z" transform="translate(-325.000000, -17.000000) translate(325.000000, 10.000000) translate(0.000000, 7.000000) translate(18.500000, 17.500000) rotate(-270.000000) translate(-18.500000, -17.500000)"/>
                    <path d="M5 8H9V9H5z" transform="translate(-325.000000, -17.000000) translate(325.000000, 10.000000) translate(0.000000, 7.000000) translate(7.000000, 8.500000) rotate(-180.000000) translate(-7.000000, -8.500000)"/>
                    <path d="M15 8H19V9H15z" transform="translate(-325.000000, -17.000000) translate(325.000000, 10.000000) translate(0.000000, 7.000000) translate(17.000000, 8.500000) rotate(-180.000000) translate(-17.000000, -8.500000)"/>
                    <path d="M7 13H9V14H7z" transform="translate(-325.000000, -17.000000) translate(325.000000, 10.000000) translate(0.000000, 7.000000) translate(8.000000, 13.500000) rotate(-180.000000) translate(-8.000000, -13.500000)"/>
                    <path d="M10 12H14V13H10z" transform="translate(-325.000000, -17.000000) translate(325.000000, 10.000000) translate(0.000000, 7.000000) translate(12.000000, 12.500000) rotate(-180.000000) translate(-12.000000, -12.500000)"/>
                    <path d="M15 13H19V14H15z" transform="translate(-325.000000, -17.000000) translate(325.000000, 10.000000) translate(0.000000, 7.000000) translate(17.000000, 13.500000) rotate(-180.000000) translate(-17.000000, -13.500000)"/>
                    <path d="M5 18H9V19H5z" transform="translate(-325.000000, -17.000000) translate(325.000000, 10.000000) translate(0.000000, 7.000000) translate(7.000000, 18.500000) rotate(-180.000000) translate(-7.000000, -18.500000)"/>
                    <path d="M3.5 6.5H7.5V7.5H3.5z" transform="translate(-325.000000, -17.000000) translate(325.000000, 10.000000) translate(0.000000, 7.000000) translate(5.500000, 7.000000) rotate(-270.000000) translate(-5.500000, -7.000000)"/>
                    <path d="M13.5 6.5H17.5V7.5H13.5z" transform="translate(-325.000000, -17.000000) translate(325.000000, 10.000000) translate(0.000000, 7.000000) translate(15.500000, 7.000000) rotate(-270.000000) translate(-15.500000, -7.000000)"/>
                    <path d="M3.5 11.5H7.5V12.5H3.5z" transform="translate(-325.000000, -17.000000) translate(325.000000, 10.000000) translate(0.000000, 7.000000) translate(5.500000, 12.000000) rotate(-270.000000) translate(-5.500000, -12.000000)"/>
                    <path d="M8.5 13.5H12.5V14.5H8.5z" transform="translate(-325.000000, -17.000000) translate(325.000000, 10.000000) translate(0.000000, 7.000000) translate(10.500000, 14.000000) rotate(-270.000000) translate(-10.500000, -14.000000)"/>
                    <path d="M3.5 16.5H7.5V17.5H3.5z" transform="translate(-325.000000, -17.000000) translate(325.000000, 10.000000) translate(0.000000, 7.000000) translate(5.500000, 17.000000) rotate(-270.000000) translate(-5.500000, -17.000000)"/>
                    <path d="M9.5 17.5H11.5V18.5H9.5z" transform="translate(-325.000000, -17.000000) translate(325.000000, 10.000000) translate(0.000000, 7.000000) translate(10.500000, 18.000000) rotate(-270.000000) translate(-10.500000, -18.000000)"/>
                    <path d="M14 17H17V18H14z" transform="translate(-325.000000, -17.000000) translate(325.000000, 10.000000) translate(0.000000, 7.000000) translate(15.500000, 17.500000) rotate(-270.000000) translate(-15.500000, -17.500000)"/>
                    <path d="M5 5H9V6H5z" transform="translate(-325.000000, -17.000000) translate(325.000000, 10.000000) translate(0.000000, 7.000000) translate(7.000000, 5.500000) rotate(-180.000000) translate(-7.000000, -5.500000)"/>
                    <path d="M10 5H14V6H10z" transform="translate(-325.000000, -17.000000) translate(325.000000, 10.000000) translate(0.000000, 7.000000) translate(12.000000, 5.500000) rotate(-180.000000) translate(-12.000000, -5.500000)"/>
                    <path d="M15 5H19V6H15z" transform="translate(-325.000000, -17.000000) translate(325.000000, 10.000000) translate(0.000000, 7.000000) translate(17.000000, 5.500000) rotate(-180.000000) translate(-17.000000, -5.500000)"/>
                    <path d="M5 10H11V11H5z" transform="translate(-325.000000, -17.000000) translate(325.000000, 10.000000) translate(0.000000, 7.000000) translate(8.000000, 10.500000) rotate(-180.000000) translate(-8.000000, -10.500000)"/>
                    <path d="M13 10H16V11H13z" transform="translate(-325.000000, -17.000000) translate(325.000000, 10.000000) translate(0.000000, 7.000000) translate(14.500000, 10.500000) rotate(-180.000000) translate(-14.500000, -10.500000)"/>
                    <path d="M5 15H9V16H5z" transform="translate(-325.000000, -17.000000) translate(325.000000, 10.000000) translate(0.000000, 7.000000) translate(7.000000, 15.500000) rotate(-180.000000) translate(-7.000000, -15.500000)"/>
                    <path d="M10 15H14V16H10z" transform="translate(-325.000000, -17.000000) translate(325.000000, 10.000000) translate(0.000000, 7.000000) translate(12.000000, 15.500000) rotate(-180.000000) translate(-12.000000, -15.500000)"/>
                    <path d="M15 16H19V17H15z" transform="translate(-325.000000, -17.000000) translate(325.000000, 10.000000) translate(0.000000, 7.000000) translate(17.000000, 16.500000) rotate(-180.000000) translate(-17.000000, -16.500000)"/>
                    <path fill-rule="nonzero" d="M21.5 1.25c.69 0 1.25.56 1.25 1.25 0 .647-.492 1.18-1.122 1.244l-.128.006h-19c-.69 0-1.25-.56-1.25-1.25 0-.647.492-1.18 1.122-1.244L2.5 1.25h19zM21.5 20.25c.69 0 1.25.56 1.25 1.25 0 .647-.492 1.18-1.122 1.244l-.128.006h-19c-.69 0-1.25-.56-1.25-1.25 0-.647.492-1.18 1.122-1.244l.128-.006h19z" transform="translate(-325.000000, -17.000000) translate(325.000000, 10.000000) translate(0.000000, 7.000000)"/>
                    <path fill-rule="nonzero" d="M21.5 1.25c.647 0 1.18.492 1.244 1.122l.006.128v19c0 .69-.56 1.25-1.25 1.25-.647 0-1.18-.492-1.244-1.122l-.006-.128v-19c0-.69.56-1.25 1.25-1.25zM2.5 1.25c.647 0 1.18.492 1.244 1.122l.006.128v19c0 .69-.56 1.25-1.25 1.25-.647 0-1.18-.492-1.244-1.122L1.25 21.5v-19c0-.69.56-1.25 1.25-1.25z" transform="translate(-325.000000, -17.000000) translate(325.000000, 10.000000) translate(0.000000, 7.000000)"/>
                </g>
            </g>
        </g>
    </g>
</svg>
