<svg xmlns="http://www.w3.org/2000/svg" width="24" height="24" viewBox="0 0 24 24">
    <g fill="none" fill-rule="evenodd">
        <g fill="#000" fill-rule="nonzero">
            <g>
                <path d="M8.616 3.116c.488-.488 1.28-.488 1.768 0 .455.456.486 1.176.091 1.666l-.091.102L3.767 11.5l6.617 6.616c.455.456.486 1.176.091 1.666l-.091.102c-.456.455-1.176.486-1.666.091l-.102-.091-7.5-7.5c-.455-.456-.486-1.176-.091-1.666l.091-.102 7.5-7.5z" transform="translate(-18.000000, -17.000000) translate(18.000000, 17.000000)"/>
                <path d="M22 10.25c.69 0 1.25.56 1.25 1.25 0 .647-.492 1.18-1.122 1.244L22 12.75H2c-.69 0-1.25-.56-1.25-1.25 0-.647.492-1.18 1.122-1.244L2 10.25h20z" transform="translate(-18.000000, -17.000000) translate(18.000000, 17.000000)"/>
            </g>
        </g>
    </g>
</svg>
