<svg xmlns="http://www.w3.org/2000/svg" width="24" height="24" viewBox="0 0 24 24">
    <defs>
        <filter id="jan3jyi1ia" color-interpolation-filters="auto">
            <feColorMatrix in="SourceGraphic" values="0 0 0 0 0.188235 0 0 0 0 0.643137 0 0 0 0 0.400000 0 0 0 1.000000 0"/>
        </filter>
        <filter id="qzabgiinib" color-interpolation-filters="auto">
            <feColorMatrix in="SourceGraphic" values="0 0 0 0 0.000000 0 0 0 0 0.000000 0 0 0 0 0.000000 0 0 0 1.000000 0"/>
        </filter>
    </defs>
    <g fill="none" fill-rule="evenodd">
        <g>
            <g filter="url(#jan3jyi1ia)" transform="translate(-16.000000, -504.000000) translate(-0.000000, 480.000000)">
                <g fill="#FFF" fill-rule="nonzero" filter="url(#qzabgiinib)" transform="translate(16.000000, 24.000000)">
                    <path d="M10.57 15.372c-.238-.002-.466-.095-.634-.26l-2.444-2.386c-.355-.348-.355-.91 0-1.259.171-.167.404-.26.646-.26.24 0 .473.093.643.26l1.801 1.741 4.452-4.365c.245-.212.588-.279.899-.177.31.102.541.359.606.672.064.314-.047.637-.293.848l-5.033 4.926c-.17.167-.402.26-.643.26z"/>
                    <path d="M23.018 11.4c.243-.316.428-.671.546-1.049.57-1.807-.464-3.723-2.313-4.287-.435-.13-.73-.526-.722-.97.013-.906-.345-1.78-.994-2.426-.952-.93-2.357-1.258-3.637-.851-.427.137-.897-.008-1.165-.361-.226-.316-.504-.593-.822-.82-.763-.53-1.71-.74-2.633-.587-.922.154-1.744.66-2.283 1.407-.264.36-.736.512-1.168.375-1.276-.41-2.68-.086-3.634.837-.65.647-1.007 1.52-.994 2.425.008.443-.283.837-.715.97-1.09.332-1.949 1.16-2.302 2.22-.353 1.06-.158 2.221.523 3.116.273.355.273.843 0 1.198-.688.895-.887 2.061-.533 3.126.354 1.064 1.216 1.894 2.312 2.224.433.133.726.527.723.97-.014.906.344 1.779.993 2.426.951.924 2.353 1.25 3.63.844.427-.135.895.014 1.16.368.23.313.51.587.832.81 1.584 1.098 3.78.736 4.906-.81.268-.356.74-.503 1.17-.366 1.277.41 2.682.082 3.632-.846.65-.647 1.007-1.52.994-2.426-.007-.444.287-.84.722-.97 1.09-.333 1.946-1.161 2.297-2.221.352-1.06.156-2.22-.525-3.114-.281-.358-.281-.855 0-1.213zm-1.265 2.815c.215.279.28.642.173.975-.106.334-.37.597-.71.708-1.617.47-2.715 1.935-2.685 3.582.008.284-.102.56-.305.764-.3.3-.75.405-1.155.27-1.585-.517-3.33.038-4.298 1.367-.073.1-.162.187-.263.26-.241.166-.54.233-.83.184-.291-.049-.55-.209-.72-.444-.969-1.33-2.713-1.884-4.298-1.368-.404.133-.85.029-1.148-.269-.21-.202-.326-.48-.318-.769.03-1.647-1.068-3.112-2.685-3.582-.338-.113-.6-.377-.703-.71-.104-.334-.038-.696.179-.973C3 12.9 3 11.095 1.987 9.786c-.215-.279-.28-.642-.173-.975.106-.334.37-.597.71-.708 1.612-.474 2.704-1.938 2.672-3.582-.007-.289.108-.568.318-.771.3-.294.745-.398 1.148-.267 1.585.517 3.33-.039 4.298-1.368.208-.285.545-.455.904-.455s.696.17.904.455c.969 1.33 2.713 1.885 4.298 1.368.403-.13.848-.027 1.147.267.21.203.326.482.318.771-.03 1.647 1.068 3.112 2.686 3.582.34.11.604.373.71.707.107.334.042.697-.174.976-1.016 1.31-1.016 3.12 0 4.429z"/>
                </g>
            </g>
        </g>
    </g>
</svg>
