<svg xmlns="http://www.w3.org/2000/svg" width="24" height="24" viewBox="0 0 24 24">
    <g fill="none" fill-rule="evenodd">
        <g fill="#000" fill-rule="nonzero">
            <g>
                <g>
                    <path d="M16.253 19.5H7.747l1.01 2.14C9.306 22.8 10.602 23.5 12 23.5c1.399 0 2.695-.7 3.242-1.86l1.01-2.14zM13.886 21c-.275.583-1.016 1-1.886 1-.87 0-1.611-.417-1.886-1h3.772z" transform="translate(-367.000000, -17.000000) translate(325.000000, 10.000000) translate(42.000000, 7.000000)"/>
                    <path d="M12 2.75c-4.452 0-8.095 3.546-8.245 8l-.005.262v4.69l-1.868 3.739c-.416.831.189 1.809 1.118 1.809h18l.12-.005c.86-.08 1.396-1.009.998-1.804l-1.868-3.737v-4.671l-.004-.263c-.15-4.474-3.794-8.02-8.246-8.02zm0 2.5c3.1 0 5.642 2.474 5.747 5.583l.003.22V16l.008.145c.017.144.059.284.124.414l1.094 2.191H5.023l1.095-2.191c.087-.174.132-.365.132-.559v-4.967l.004-.22C6.358 7.722 8.899 5.25 12 5.25z" transform="translate(-367.000000, -17.000000) translate(325.000000, 10.000000) translate(42.000000, 7.000000)"/>
                    <path d="M12 .25C10.481.25 9.25 1.481 9.25 3c0 .596.19 1.165.538 1.633.179.241.483.353.775.284.467-.11.948-.167 1.437-.167.49 0 .97.056 1.435.167.293.07.598-.041.777-.283.347-.47.538-1.038.538-1.634 0-1.519-1.231-2.75-2.75-2.75zm0 1.5c.69 0 1.25.56 1.25 1.25l-.01.161c-.007.053-.017.105-.03.156l-.01.028-.12-.02c-.355-.05-.716-.075-1.08-.075l-.362.008c-.24.011-.48.034-.717.067l-.122.019-.009-.027c-.026-.102-.04-.208-.04-.317 0-.69.56-1.25 1.25-1.25z" transform="translate(-367.000000, -17.000000) translate(325.000000, 10.000000) translate(42.000000, 7.000000)"/>
                </g>
            </g>
        </g>
    </g>
</svg>
